Coordinates
version=1
nRows=12
nColumns=24
inDegrees=yes

Units are S.I. units (second, meters, Newtons, ...)
Angles are in degrees.

endheader
time	pelvis_tilt	pelvis_list	pelvis_rotation	pelvis_tx	pelvis_ty	pelvis_tz	hip_flexion_r	hip_adduction_r	hip_rotation_r	knee_angle_r	ankle_angle_r	subtalar_angle_r	mtp_angle_r	hip_flexion_l	hip_adduction_l	hip_rotation_l	knee_angle_l	ankle_angle_l	subtalar_angle_l	mtp_angle_l	lumbar_extension	lumbar_bending	lumbar_rotation
      4.85000000	     59.51201719	      4.72283712	     -1.83228431	      0.56212075	      0.99990924	     -0.28739483	     -3.89512266	    -16.66100406	     12.57139658	    -48.59021791	     -9.02586606	     10.13000185	    -48.52277355	     -3.58851295	     -7.37054506	      0.57335147	    -55.86886591	     -1.67992672	      9.28663639	    -30.36960047	      0.00000000	      0.00000000	      0.00000000
      4.86000000	     59.55792170	      4.73893170	     -1.80964592	      0.56216330	      0.99997867	     -0.28736680	     -3.95761910	    -16.45525479	     12.36176694	    -47.97491752	     -9.03119453	     10.26375805	    -47.99192481	     -3.57836262	     -7.37522414	      0.56403197	    -55.94584094	     -1.90324599	      9.28897674	    -30.14033690	      0.00000000	      0.00000000	      0.00000000
      4.87000000	     59.58964124	      4.75184055	     -1.77693704	      0.56218575	      0.99992596	     -0.28737422	     -4.01277071	    -16.24876594	     12.17193503	    -47.37114593	     -9.01690784	     10.40261652	    -47.46614365	     -3.55734292	     -7.38255890	      0.55114831	    -56.01980464	     -2.13342493	      9.29159898	    -29.78602172	      0.00000000	      0.00000000	      0.00000000
      4.88000000	     59.61139072	      4.76195122	     -1.74056753	      0.56219415	      0.99988885	     -0.28739637	     -4.06042435	    -16.04107203	     12.00366903	    -46.78172514	     -8.98373939	     10.54803337	    -46.95553473	     -3.54506302	     -7.39108604	      0.54407503	    -56.06974613	     -2.32932035	      9.29575491	    -29.35543530	      0.00000000	      0.00000000	      0.00000000
      4.89000000	     59.63214192	      4.77121465	     -1.70725618	      0.56221445	      0.99992249	     -0.28740714	     -4.10180443	    -15.83071524	     11.85455612	    -46.20661569	     -8.93702678	     10.69858795	    -46.46831011	     -3.55454510	     -7.39762457	      0.54753538	    -56.08968997	     -2.46816860	      9.30375123	    -28.90594620	      0.00000000	      0.00000000	      0.00000000
      4.90000000	     59.66058817	      4.78127372	     -1.68042525	      0.56224922	      1.00000153	     -0.28739350	     -4.14103861	    -15.61792568	     11.72073800	    -45.64477371	     -8.88430509	     10.85041821	    -46.01038792	     -3.58998569	     -7.39951290	      0.56039017	    -56.08570798	     -2.54653400	      9.31686904	    -28.49376729	      0.00000000	      0.00000000	      0.00000000
      4.91000000	     59.70138552	      4.79307545	     -1.65979422	      0.56227922	      1.00008663	     -0.28736567	     -4.18392350	    -15.40509195	     11.59910794	    -45.09554306	     -8.83228550	     10.99853088	    -45.58508099	     -3.64790396	     -7.39601515	      0.57818513	    -56.06906188	     -2.57559726	      9.33409764	    -28.16501077	      0.00000000	      0.00000000	      0.00000000
      4.92000000	     59.75441518	      4.80714508	     -1.64288628	      0.56229260	      1.00015877	     -0.28734319	     -4.23454520	    -15.19530828	     11.48803268	    -44.55901889	     -8.78466872	     11.13837287	    -45.19295516	     -3.72045983	     -7.38796664	      0.59669657	    -56.04975324	     -2.57391694	      9.35217845	    -27.94917918	      0.00000000	      0.00000000	      0.00000000
      4.93000000	     59.81609505	      4.82355207	     -1.62670173	      0.56229284	      1.00022094	     -0.28733169	     -4.29261300	    -14.99098395	     11.38729402	    -44.03622715	     -8.74158058	     11.26708977	    -44.83197160	     -3.79882634	     -7.37665664	      0.61420032	    -56.03300783	     -2.56045912	      9.36672674	    -27.85604269	      0.00000000	      0.00000000	      0.00000000
      4.94000000	     59.88099468	      4.84199331	     -1.60902550	      0.56228689	      1.00028300	     -0.28732493	     -4.35344894	    -14.79324144	     11.29779813	    -43.52949677	     -8.70054098	     11.38422334	    -44.49797374	     -3.87530001	     -7.36325074	      0.63165769	    -56.01919126	     -2.54968976	      9.37377358	    -27.87608859	      0.00000000	      0.00000000	      0.00000000
      4.95000000	     59.94308537	      4.86200662	     -1.58899735	      0.56227657	      1.00034764	     -0.28732143	     -4.40999272	    -14.60185892	     11.22117988	    -43.04257332	     -8.65829808	     11.49178766	    -44.18549659	     -3.94414517	     -7.34873144	      0.65115900	    -56.00612957	     -2.54934698	      9.37106629	    -27.98405739	      0.00000000	      0.00000000	      0.00000000
      4.96000000	     59.99689439	      4.88283377	     -1.56674320	      0.56226060	      1.00040965	     -0.28732290	     -4.45514921	    -14.41572223	     11.15950582	    -42.58003478	     -8.61266191	     11.59364725	    -43.88879278	     -4.00156602	     -7.33394198	      0.67383843	    -55.99197669	     -2.56051024	      9.35862926	    -28.14459839	      0.00000000	      0.00000000	      0.00000000
